<?xml version="1.0" encoding="UTF-8" standalone="no"?>
<svg
   xmlns:dc="http://purl.org/dc/elements/1.1/"
   xmlns:cc="http://creativecommons.org/ns#"
   xmlns:rdf="http://www.w3.org/1999/02/22-rdf-syntax-ns#"
   xmlns:svg="http://www.w3.org/2000/svg"
   xmlns="http://www.w3.org/2000/svg"
   xmlns:sodipodi="http://sodipodi.sourceforge.net/DTD/sodipodi-0.dtd"
   xmlns:inkscape="http://www.inkscape.org/namespaces/inkscape"
   version="1.1"
   x="0px"
   y="0px"
   viewBox="0 0 100 100"
   enable-background="new 0 0 512 512"
   xml:space="preserve"
   id="svg50"
   sodipodi:docname="noun_Celebration_1857239.svg"
   width="100"
   height="100"
   inkscape:version="0.92.1 r15371"><metadata
     id="metadata56"><rdf:RDF><cc:Work
         rdf:about=""><dc:format>image/svg+xml</dc:format><dc:type
           rdf:resource="http://purl.org/dc/dcmitype/StillImage" /><dc:title></dc:title></cc:Work></rdf:RDF></metadata><defs
     id="defs54" /><sodipodi:namedview
     pagecolor="#ffffff"
     bordercolor="#666666"
     borderopacity="1"
     objecttolerance="10"
     gridtolerance="10"
     guidetolerance="10"
     inkscape:pageopacity="0"
     inkscape:pageshadow="2"
     inkscape:window-width="1920"
     inkscape:window-height="1048"
     id="namedview52"
     showgrid="false"
     inkscape:measure-start="0,0"
     inkscape:measure-end="0,0"
     inkscape:zoom="2.085965"
     inkscape:cx="99.827975"
     inkscape:cy="95.488591"
     inkscape:window-x="0"
     inkscape:window-y="16"
     inkscape:window-maximized="1"
     inkscape:current-layer="svg50" /><g
     id="g4555"
     transform="matrix(0.19865478,0,0,0.19865478,-1.3264065,105.99098)"><g
       transform="translate(0,-540)"
       id="g10"><rect
         id="rect2"
         height="10.555"
         width="10.556"
         y="52.338001"
         x="279.51901" /><rect
         id="rect4"
         height="10.555"
         width="10.555"
         y="87.794998"
         x="352.711" /><rect
         id="rect6"
         height="10.556"
         width="10.555"
         y="277.367"
         x="362.47699" /><rect
         id="rect8"
         height="10.555"
         width="10.555"
         y="197.757"
         x="395.21899" /></g><path
       inkscape:connector-curvature="0"
       id="path12"
       d="m 288.712,-200.443 c 12.735,21.258 14.831,34.647 11.388,38.091 -0.243,0.243 -0.564,0.468 -0.963,0.666 l -1.076,0.406 c -4.301,1.215 -14.194,-0.047 -32.143,-10.183 -19.942,-11.262 -43.15,-29.69 -65.349,-51.89 -22.2,-22.2 -40.627,-45.408 -51.889,-65.35 -8.941,-15.832 -10.976,-25.396 -10.499,-30.385 l 1.457,-3.857 c 2.749,-2.586 13.699,-3.069 37.76,11.291 l 6.15,-10.304 c -25.35,-15.131 -43.491,-18.384 -52.464,-9.412 -2.542,2.542 -4.115,5.766 -4.735,9.648 L 28.212,-61.824 c -1.192,3.154 -0.423,6.73 1.959,9.113 1.638,1.639 3.841,2.515 6.083,2.515 1.019,0 2.045,-0.181 3.03,-0.554 l 259.702,-98.05 3.188,-1.204 c 0.481,-0.158 0.948,-0.338 1.406,-0.532 l 2.286,-0.864 -0.093,-0.245 c 1.013,-0.626 1.954,-1.363 2.812,-2.222 9.009,-9.009 5.696,-27.247 -9.578,-52.744 z m -12.287,47.332 -161.29,60.896 C 91.727,-95.074 72.62,-103.533 59.626,-111.049 l 14.667,-38.842 c 17.092,10.232 45.182,22.794 80.057,22.794 29.692,0 64.299,-9.11 101.209,-36.517 7.353,4.417 14.382,7.993 20.866,10.503 z m -197.82,-8.201 14.205,-37.62 c 12.122,8.401 31.821,18.294 57.377,18.294 17.393,0 37.502,-4.6 59.758,-17.361 11.58,10.32 23.411,19.701 34.763,27.429 -74.612,52.985 -138.249,26.477 -166.103,9.258 z m 122.033,-45.243 c -49.895,26.861 -86.847,8.308 -103.44,-3.996 l 11.689,-30.957 c 8.166,5.457 19.676,10.554 34.219,10.554 8.44,0 17.9,-1.721 28.311,-6.081 6.426,7.413 13.349,14.851 20.667,22.168 2.813,2.813 5.67,5.584 8.554,8.312 z m -62.407,-76.246 c 6.377,11.292 14.92,23.543 25.042,36.043 -23.339,8.371 -40.313,0.835 -50.008,-6.345 l 17.206,-45.565 c 1.947,4.859 4.53,10.147 7.76,15.867 z m -82.898,183.12 c 9.943,5.591 22.937,11.522 38.367,15.559 l -51.598,19.481 z" /><g
       transform="translate(0,-540)"
       id="g44"><path
         inkscape:connector-curvature="0"
         id="path14"
         d="m 386.651,113.02 13.384,4.161 4.164,13.395 c 0.703,2.246 2.582,3.868 4.907,4.233 0.325,0.051 0.649,0.076 0.971,0.076 1.976,0 3.83,-0.946 4.995,-2.597 l 8.093,-11.443 14.017,0.179 c 2.324,0.026 4.476,-1.253 5.545,-3.347 1.07,-2.095 0.863,-4.569 -0.547,-6.465 l -8.383,-11.233 4.502,-13.273 0.002,-0.007 c 0.752,-2.228 0.188,-4.644 -1.476,-6.307 -1.663,-1.662 -4.08,-2.229 -6.313,-1.473 l -13.273,4.501 -11.23,-8.38 c -1.886,-1.41 -4.361,-1.623 -6.46,-0.554 -2.099,1.068 -3.384,3.195 -3.354,5.551 l 0.179,14.015 -11.44,8.091 c -1.926,1.36 -2.893,3.652 -2.521,5.98 0.372,2.328 1.998,4.206 4.238,4.897 z m 19.189,-10.967 c 1.631,-1.165 2.592,-3.058 2.57,-5.075 l -0.066,-5.223 4.175,3.115 c 1.612,1.209 3.716,1.55 5.655,0.903 l 4.947,-1.677 -1.682,4.957 c -0.645,1.912 -0.309,4.018 0.898,5.633 l 3.123,4.187 -5.235,-0.067 c -1.999,-0.035 -3.897,0.94 -5.079,2.594 l -3.016,4.265 -1.545,-4.971 c -0.597,-1.938 -2.108,-3.455 -4.046,-4.057 l -4.988,-1.551 z" /><path
         inkscape:connector-curvature="0"
         id="path16"
         d="m 483.662,325.633 c -1.074,-2.111 -3.221,-3.381 -5.584,-3.373 l -18.648,0.238 -10.771,-15.231 c -1.369,-1.933 -3.67,-2.899 -6.009,-2.53 -2.338,0.371 -4.228,2.005 -4.932,4.268 l -5.536,17.809 -17.813,5.537 c -2.26,0.704 -3.894,2.594 -4.265,4.932 -0.371,2.338 0.599,4.641 2.535,6.012 l 15.227,10.768 -0.238,18.646 c -0.031,2.37 1.262,4.512 3.374,5.587 0.894,0.455 1.855,0.68 2.812,0.68 1.303,0 2.594,-0.416 3.686,-1.233 l 14.947,-11.153 17.662,5.988 c 2.246,0.762 4.678,0.193 6.353,-1.481 1.675,-1.674 2.243,-4.109 1.481,-6.353 l -5.988,-17.662 11.149,-14.941 c 1.42,-1.903 1.634,-4.395 0.558,-6.508 z m -24.055,22.4 3.184,9.389 -9.373,-3.178 c -1.936,-0.664 -4.068,-0.326 -5.694,0.894 l -7.945,5.929 0.126,-9.889 c 0.034,-2.049 -0.945,-3.975 -2.609,-5.146 l -8.095,-5.725 9.479,-2.946 c 1.932,-0.604 3.446,-2.119 4.054,-4.063 l 2.943,-9.467 5.717,8.084 c 1.18,1.675 3.102,2.651 5.131,2.62 l 9.912,-0.126 -5.92,7.934 c -1.23,1.636 -1.567,3.77 -0.91,5.69 z" /><path
         inkscape:connector-curvature="0"
         id="path18"
         d="m 142.318,63.984 17.25,12.199 -0.27,21.132 c -0.028,2.374 1.268,4.519 3.383,5.596 0.896,0.457 1.86,0.682 2.819,0.682 1.306,0 2.602,-0.417 3.702,-1.237 l 16.933,-12.637 20.01,6.786 c 2.25,0.764 4.69,0.194 6.371,-1.485 1.682,-1.68 2.252,-4.122 1.489,-6.375 L 207.22,68.636 219.854,51.705 c 1.422,-1.903 1.636,-4.401 0.559,-6.52 -1.077,-2.119 -3.25,-3.415 -5.604,-3.388 l -21.127,0.27 -12.195,-17.245 c -1.37,-1.943 -3.682,-2.921 -6.029,-2.55 -2.349,0.37 -4.247,2.009 -4.955,4.282 l -6.272,20.177 -20.18,6.272 c -2.27,0.707 -3.91,2.605 -4.279,4.954 -0.367,2.351 0.609,4.661 2.546,6.027 z m 28.399,-6.7 c 1.936,-0.605 3.455,-2.121 4.07,-4.076 l 3.688,-11.863 7.171,10.14 c 1.161,1.644 3.051,2.622 5.094,2.622 0.016,0 0.032,0 0.048,0 l 12.422,-0.159 -7.426,9.952 c -1.226,1.64 -1.563,3.775 -0.906,5.702 l 3.989,11.765 -11.754,-3.986 c -1.936,-0.662 -4.073,-0.325 -5.708,0.898 l -9.956,7.43 0.159,-12.409 c 0.031,-2.047 -0.949,-3.974 -2.619,-5.153 l -10.143,-7.173 z" /><path
         inkscape:connector-curvature="0"
         id="path20"
         d="m 348.734,243.247 2.036,11.826 c 25.979,-4.473 52.59,-2.429 76.956,5.91 l 3.885,-11.353 c -26.263,-8.989 -54.922,-11.198 -82.877,-6.383 z" /><path
         inkscape:connector-curvature="0"
         id="path22"
         d="m 238.519,307.361 8.485,8.484 13.925,-13.924 c 19.895,-19.896 44.496,-34.586 71.143,-42.482 l -3.408,-11.505 c -28.559,8.462 -54.915,24.197 -76.22,45.501 z" /><path
         inkscape:connector-curvature="0"
         id="path24"
         d="m 273.393,106.331 c -1.406,-6.921 -3.275,-13.812 -5.558,-20.479 l -11.354,3.886 c 2.114,6.179 3.848,12.565 5.151,18.981 z" /><path
         inkscape:connector-curvature="0"
         id="path26"
         d="m 275.427,118.756 -11.907,1.488 c 5.154,41.237 -6.73,84.486 -32.608,118.658 l 9.566,7.244 c 27.75,-36.643 40.488,-83.075 34.949,-127.39 z" /><path
         inkscape:connector-curvature="0"
         id="path28"
         d="m 215.543,256.535 -13.925,13.925 8.485,8.485 13.925,-13.925 c 1.977,-1.977 3.936,-4.028 5.823,-6.097 l -8.867,-8.086 c -1.763,1.934 -3.594,3.851 -5.441,5.698 z" /><path
         inkscape:connector-curvature="0"
         id="path30"
         d="m 371.543,319.176 c 9.06,2.756 18.19,6.415 27.14,10.874 l 5.352,-10.74 c -9.545,-4.756 -19.302,-8.663 -28.997,-11.614 z" /><path
         inkscape:connector-curvature="0"
         id="path32"
         d="m 258.229,328.715 -9.516,9.516 8.485,8.485 9.516,-9.516 c 20.616,-20.616 52.771,-28.669 88.222,-22.098 l 2.188,-11.799 c -39.397,-7.305 -75.442,1.959 -98.895,25.412 z" /><path
         inkscape:connector-curvature="0"
         id="path34"
         d="m 197.906,113.182 -10.74,5.352 c 4.519,9.069 8.215,18.324 10.987,27.509 l 11.488,-3.467 c -2.967,-9.832 -6.914,-19.722 -11.735,-29.394 z" /><path
         inkscape:connector-curvature="0"
         id="path36"
         d="m 170.5,260.018 8.485,8.485 9.516,-9.516 c 23.451,-23.451 32.714,-59.494 25.413,-98.886 l -11.799,2.187 c 6.57,35.448 -1.485,67.601 -22.099,88.214 z" /><rect
         id="rect38"
         height="117.287"
         width="12"
         transform="matrix(0.7071,0.7071,-0.7071,0.7071,220.5985,-198.8824)"
         y="108.201"
         x="344.37201" /><rect
         id="rect40"
         height="11.999"
         width="78.086998"
         transform="matrix(-0.7071,0.7071,-0.7071,-0.7071,635.0663,232.6987)"
         y="241.877"
         x="230.29601" /><rect
         id="rect42"
         height="34.127998"
         width="12"
         transform="matrix(-0.7071,-0.7071,0.7071,-0.7071,165.8481,662.7571)"
         y="279.966"
         x="214.186" /></g></g></svg>